<svg xmlns="http://www.w3.org/2000/svg" viewBox="0 0 512 512" fill="none">
  <defs>
    <linearGradient id="g1" x1="0" y1="0" x2="1" y2="1">
      <stop offset="0%" stop-color="#6366f1"/>
      <stop offset="100%" stop-color="#818cf8"/>
    </linearGradient>
    <linearGradient id="g2" x1="0.5" y1="0" x2="0.5" y2="1">
      <stop offset="0%" stop-color="#a5b4fc"/>
      <stop offset="100%" stop-color="#6366f1"/>
    </linearGradient>
  </defs>
  <path d="M256 28 L460 120 C460 120 470 320 256 484 C42 320 52 120 52 120 Z" 
        fill="url(#g1)" opacity="0.2" stroke="url(#g1)" stroke-width="6"/>
  <path d="M256 80 L410 152 C410 152 418 306 256 434 C94 306 102 152 102 152 Z" 
        fill="none" stroke="url(#g2)" stroke-width="4" opacity="0.6"/>
  <rect x="212" y="230" width="88" height="72" rx="12" fill="none" stroke="url(#g2)" stroke-width="6"/>
  <path d="M224 230 V200 C224 172 256 148 256 148 C256 148 288 172 288 200 V230" 
        fill="none" stroke="url(#g2)" stroke-width="6" stroke-linecap="round"/>
  <circle cx="256" cy="260" r="12" fill="url(#g2)"/>
  <rect x="252" y="264" width="8" height="20" rx="4" fill="url(#g2)"/>
</svg>
