<svg xmlns="http://www.w3.org/2000/svg" viewBox="0 0 800 180" fill="none">
  <defs>
    <linearGradient id="sg" x1="0" y1="0" x2="1" y2="1">
      <stop offset="0%" stop-color="#6366f1"/>
      <stop offset="100%" stop-color="#818cf8"/>
    </linearGradient>
    <linearGradient id="ig" x1="0.5" y1="0" x2="0.5" y2="1">
      <stop offset="0%" stop-color="#a5b4fc"/>
      <stop offset="100%" stop-color="#6366f1"/>
    </linearGradient>
  </defs>
  <!-- Shield icon -->
  <g transform="translate(20,5) scale(0.33)">
    <path d="M256 28 L460 120 C460 120 470 320 256 484 C42 320 52 120 52 120 Z" 
          fill="url(#sg)" opacity="0.15" stroke="url(#sg)" stroke-width="4"/>
    <path d="M256 80 L410 152 C410 152 418 306 256 434 C94 306 102 152 102 152 Z" 
          fill="none" stroke="url(#ig)" stroke-width="2.5" opacity="0.5"/>
    <rect x="212" y="230" width="88" height="72" rx="12" fill="none" stroke="url(#ig)" stroke-width="5"/>
    <path d="M224 230 V200 C224 172 256 148 256 148 C256 148 288 172 288 200 V230" 
          fill="none" stroke="url(#ig)" stroke-width="5" stroke-linecap="round"/>
    <circle cx="256" cy="260" r="10" fill="url(#ig)"/>
    <rect x="253" y="262" width="6" height="18" rx="3" fill="url(#ig)"/>
  </g>
  <!-- Text -->
  <text x="200" y="118" font-family="Inter, -apple-system, sans-serif" font-weight="700" font-size="72" fill="#f8fafc" letter-spacing="-2">
    Agent<tspan fill="url(#sg)">Guard</tspan>
  </text>
</svg>
